<mxfile host="app.diagrams.net" modified="2024-02-27T10:11:47.587Z" agent="Mozilla/5.0 (Windows NT 10.0; Win64; x64) AppleWebKit/537.36 (KHTML, like Gecko) Chrome/122.0.0.0 Safari/537.36" etag="cQ1DLKlX1KT0uKm_vznI" version="23.1.7" type="device">
  <diagram id="yIAloGLCC0htdoMr-MfV" name="Page-1">
    <mxGraphModel dx="813" dy="1138" grid="1" gridSize="10" guides="1" tooltips="1" connect="1" arrows="1" fold="1" page="1" pageScale="1" pageWidth="850" pageHeight="1100" math="0" shadow="0">
      <root>
        <mxCell id="0" />
        <mxCell id="1" parent="0" />
        <mxCell id="tw927HRU5uSJsNRWJGGw-7" style="edgeStyle=orthogonalEdgeStyle;rounded=0;orthogonalLoop=1;jettySize=auto;html=1;exitX=0.343;exitY=1.006;exitDx=0;exitDy=0;entryX=0.5;entryY=0;entryDx=0;entryDy=0;shape=link;exitPerimeter=0;" parent="1" source="tw927HRU5uSJsNRWJGGw-1" target="tw927HRU5uSJsNRWJGGw-5" edge="1">
          <mxGeometry relative="1" as="geometry">
            <Array as="points">
              <mxPoint x="401" y="515" />
              <mxPoint x="580" y="515" />
              <mxPoint x="580" y="550" />
            </Array>
          </mxGeometry>
        </mxCell>
        <mxCell id="tw927HRU5uSJsNRWJGGw-1" value="GAME" style="rounded=0;whiteSpace=wrap;html=1;" parent="1" vertex="1">
          <mxGeometry x="360" y="420" width="120" height="60" as="geometry" />
        </mxCell>
        <mxCell id="tw927HRU5uSJsNRWJGGw-3" value="WINNABLE" style="rounded=0;whiteSpace=wrap;html=1;" parent="1" vertex="1">
          <mxGeometry x="490" y="650" width="120" height="60" as="geometry" />
        </mxCell>
        <mxCell id="5q8O8WbMorLBzlFqFYQP-12" style="rounded=0;orthogonalLoop=1;jettySize=auto;html=1;exitX=1;exitY=0.5;exitDx=0;exitDy=0;entryX=0.5;entryY=0;entryDx=0;entryDy=0;endArrow=none;endFill=0;" edge="1" parent="1" source="tw927HRU5uSJsNRWJGGw-4" target="5q8O8WbMorLBzlFqFYQP-11">
          <mxGeometry relative="1" as="geometry" />
        </mxCell>
        <mxCell id="5q8O8WbMorLBzlFqFYQP-13" value="1" style="edgeLabel;html=1;align=center;verticalAlign=middle;resizable=0;points=[];" vertex="1" connectable="0" parent="5q8O8WbMorLBzlFqFYQP-12">
          <mxGeometry x="0.0221" y="3" relative="1" as="geometry">
            <mxPoint as="offset" />
          </mxGeometry>
        </mxCell>
        <mxCell id="tw927HRU5uSJsNRWJGGw-4" value="NON-WIN" style="rounded=0;whiteSpace=wrap;html=1;" parent="1" vertex="1">
          <mxGeometry x="680" y="650" width="120" height="60" as="geometry" />
        </mxCell>
        <mxCell id="tw927HRU5uSJsNRWJGGw-5" value="D" style="ellipse;whiteSpace=wrap;html=1;aspect=fixed;" parent="1" vertex="1">
          <mxGeometry x="570" y="550" width="20" height="20" as="geometry" />
        </mxCell>
        <mxCell id="tw927HRU5uSJsNRWJGGw-10" value="" style="edgeStyle=orthogonalEdgeStyle;rounded=0;orthogonalLoop=1;jettySize=auto;html=1;entryX=0.5;entryY=0;entryDx=0;entryDy=0;endArrow=none;endFill=0;" parent="1" target="tw927HRU5uSJsNRWJGGw-4" edge="1">
          <mxGeometry relative="1" as="geometry">
            <mxPoint x="590" y="560" as="sourcePoint" />
            <mxPoint x="75" y="600" as="targetPoint" />
            <Array as="points">
              <mxPoint x="740" y="560" />
            </Array>
          </mxGeometry>
        </mxCell>
        <mxCell id="5q8O8WbMorLBzlFqFYQP-1" value="" style="shape=requiredInterface;html=1;verticalLabelPosition=bottom;sketch=0;rotation=90;" vertex="1" parent="1">
          <mxGeometry x="734" y="595" width="10" height="20" as="geometry" />
        </mxCell>
        <mxCell id="5q8O8WbMorLBzlFqFYQP-5" style="edgeStyle=orthogonalEdgeStyle;rounded=0;orthogonalLoop=1;jettySize=auto;html=1;exitX=0.5;exitY=1;exitDx=0;exitDy=0;entryX=0.5;entryY=0;entryDx=0;entryDy=0;endArrow=none;endFill=0;" edge="1" parent="1" target="tw927HRU5uSJsNRWJGGw-1">
          <mxGeometry relative="1" as="geometry">
            <mxPoint x="310.0000000000001" y="350" as="sourcePoint" />
            <Array as="points">
              <mxPoint x="310" y="380" />
              <mxPoint x="420" y="380" />
            </Array>
          </mxGeometry>
        </mxCell>
        <mxCell id="5q8O8WbMorLBzlFqFYQP-6" style="edgeStyle=orthogonalEdgeStyle;rounded=0;orthogonalLoop=1;jettySize=auto;html=1;exitX=0.5;exitY=1;exitDx=0;exitDy=0;endArrow=none;endFill=0;" edge="1" parent="1" source="5q8O8WbMorLBzlFqFYQP-3">
          <mxGeometry relative="1" as="geometry">
            <mxPoint x="420.0000000000001" y="420" as="targetPoint" />
            <Array as="points">
              <mxPoint x="380" y="380" />
              <mxPoint x="421" y="380" />
              <mxPoint x="421" y="420" />
            </Array>
          </mxGeometry>
        </mxCell>
        <mxCell id="5q8O8WbMorLBzlFqFYQP-3" value="Year" style="ellipse;whiteSpace=wrap;html=1;" vertex="1" parent="1">
          <mxGeometry x="350" y="310" width="60" height="40" as="geometry" />
        </mxCell>
        <mxCell id="5q8O8WbMorLBzlFqFYQP-7" style="edgeStyle=orthogonalEdgeStyle;rounded=0;orthogonalLoop=1;jettySize=auto;html=1;exitX=0.5;exitY=1;exitDx=0;exitDy=0;endArrow=none;endFill=0;" edge="1" parent="1" source="5q8O8WbMorLBzlFqFYQP-4">
          <mxGeometry relative="1" as="geometry">
            <mxPoint x="420.0000000000001" y="420" as="targetPoint" />
            <Array as="points">
              <mxPoint x="460" y="380" />
              <mxPoint x="421" y="380" />
              <mxPoint x="421" y="420" />
            </Array>
          </mxGeometry>
        </mxCell>
        <mxCell id="5q8O8WbMorLBzlFqFYQP-4" value="Language" style="ellipse;whiteSpace=wrap;html=1;" vertex="1" parent="1">
          <mxGeometry x="430" y="310" width="60" height="40" as="geometry" />
        </mxCell>
        <mxCell id="5q8O8WbMorLBzlFqFYQP-10" style="edgeStyle=orthogonalEdgeStyle;rounded=0;orthogonalLoop=1;jettySize=auto;html=1;exitX=0;exitY=0.5;exitDx=0;exitDy=0;entryX=1;entryY=0.5;entryDx=0;entryDy=0;endArrow=none;endFill=0;" edge="1" parent="1" source="5q8O8WbMorLBzlFqFYQP-9" target="tw927HRU5uSJsNRWJGGw-1">
          <mxGeometry relative="1" as="geometry" />
        </mxCell>
        <mxCell id="5q8O8WbMorLBzlFqFYQP-9" value="Console" style="ellipse;shape=doubleEllipse;margin=3;whiteSpace=wrap;html=1;align=center;" vertex="1" parent="1">
          <mxGeometry x="550" y="430" width="100" height="40" as="geometry" />
        </mxCell>
        <mxCell id="5q8O8WbMorLBzlFqFYQP-11" value="SEQUEL" style="rhombus;whiteSpace=wrap;html=1;" vertex="1" parent="1">
          <mxGeometry x="910" y="650" width="120" height="70" as="geometry" />
        </mxCell>
        <mxCell id="5q8O8WbMorLBzlFqFYQP-14" value="PrequelTo" style="text;html=1;align=center;verticalAlign=middle;whiteSpace=wrap;rounded=0;rotation=-10;" vertex="1" parent="1">
          <mxGeometry x="830" y="640" width="60" height="30" as="geometry" />
        </mxCell>
        <mxCell id="5q8O8WbMorLBzlFqFYQP-15" value="Name" style="ellipse;whiteSpace=wrap;html=1;align=center;fontStyle=4;" vertex="1" parent="1">
          <mxGeometry x="250" y="310" width="100" height="40" as="geometry" />
        </mxCell>
      </root>
    </mxGraphModel>
  </diagram>
</mxfile>
